<svg width="40" height="40" viewBox="0 0 40 40" fill="none" xmlns="http://www.w3.org/2000/svg">
<path d="M30.68 6.92C30.2053 6.92 29.7413 7.06076 29.3466 7.32447C28.952 7.58819 28.6443 7.96302 28.4627 8.40156C28.281 8.8401 28.2335 9.32266 28.3261 9.78822C28.4187 10.2538 28.6473 10.6814 28.9829 11.0171C29.3186 11.3527 29.7462 11.5813 30.2118 11.6739C30.6773 11.7665 31.1599 11.719 31.5984 11.5373C32.037 11.3557 32.4118 11.048 32.6755 10.6534C32.9392 10.2587 33.08 9.79467 33.08 9.32C33.08 8.68348 32.8271 8.07303 32.3771 7.62294C31.927 7.17286 31.3165 6.92 30.68 6.92ZM39.88 11.76C39.8411 10.1006 39.5303 8.45881 38.96 6.9C38.4515 5.56627 37.66 4.35856 36.64 3.36C35.6496 2.33485 34.4391 1.54835 33.1 1.06C31.5453 0.472322 29.9017 0.15442 28.24 0.12C26.12 -1.11759e-07 25.44 0 20 0C14.56 0 13.88 -1.11759e-07 11.76 0.12C10.0983 0.15442 8.45469 0.472322 6.9 1.06C5.56335 1.5533 4.35387 2.33912 3.36 3.36C2.33485 4.35036 1.54835 5.56088 1.06 6.9C0.472322 8.45469 0.15442 10.0983 0.12 11.76C-1.11759e-07 13.88 0 14.56 0 20C0 25.44 -1.11759e-07 26.12 0.12 28.24C0.15442 29.9017 0.472322 31.5453 1.06 33.1C1.54835 34.4391 2.33485 35.6496 3.36 36.64C4.35387 37.6609 5.56335 38.4467 6.9 38.94C8.45469 39.5277 10.0983 39.8456 11.76 39.88C13.88 40 14.56 40 20 40C25.44 40 26.12 40 28.24 39.88C29.9017 39.8456 31.5453 39.5277 33.1 38.94C34.4391 38.4516 35.6496 37.6651 36.64 36.64C37.6645 35.6452 38.4567 34.4364 38.96 33.1C39.5303 31.5412 39.8411 29.8994 39.88 28.24C39.88 26.12 40 25.44 40 20C40 14.56 40 13.88 39.88 11.76ZM36.28 28C36.2654 29.2695 36.0355 30.5274 35.6 31.72C35.2807 32.5904 34.7678 33.3768 34.1 34.02C33.4513 34.681 32.6665 35.1929 31.8 35.52C30.6074 35.9555 29.3495 36.1854 28.08 36.2C26.08 36.3 25.34 36.32 20.08 36.32C14.82 36.32 14.08 36.32 12.08 36.2C10.7618 36.2247 9.44919 36.0217 8.2 35.6C7.37156 35.2562 6.62271 34.7456 6 34.1C5.33618 33.4575 4.82969 32.6704 4.52 31.8C4.03171 30.5903 3.76089 29.3039 3.72 28C3.72 26 3.6 25.26 3.6 20C3.6 14.74 3.6 14 3.72 12C3.72896 10.7021 3.9659 9.41589 4.42 8.2C4.77209 7.35582 5.31253 6.60332 6 6C6.60763 5.31234 7.35858 4.76619 8.2 4.4C9.4191 3.96009 10.704 3.73016 12 3.72C14 3.72 14.74 3.6 20 3.6C25.26 3.6 26 3.6 28 3.72C29.2695 3.73456 30.5274 3.96449 31.72 4.4C32.6289 4.7373 33.4446 5.28569 34.1 6C34.7554 6.61436 35.2675 7.36547 35.6 8.2C36.0445 9.41787 36.2746 10.7036 36.28 12C36.38 14 36.4 14.74 36.4 20C36.4 25.26 36.38 26 36.28 28ZM20 9.74C17.9716 9.74395 15.9899 10.3491 14.3053 11.4788C12.6207 12.6086 11.3088 14.2124 10.5353 16.0875C9.76178 17.9626 9.56145 20.0249 9.95959 22.0139C10.3577 24.0028 11.3365 25.8291 12.7722 27.262C14.2078 28.6948 16.036 29.67 18.0257 30.0643C20.0154 30.4586 22.0773 30.2542 23.9509 29.4771C25.8245 28.6999 27.4258 27.3849 28.5523 25.6981C29.6788 24.0113 30.28 22.0284 30.28 20C30.2826 18.6502 30.0184 17.3132 29.5025 16.0659C28.9866 14.8186 28.2291 13.6856 27.2737 12.7321C26.3184 11.7786 25.1839 11.0234 23.9356 10.5099C22.6873 9.99636 21.3498 9.73472 20 9.74ZM20 26.66C18.6828 26.66 17.3951 26.2694 16.2999 25.5376C15.2047 24.8058 14.351 23.7656 13.847 22.5487C13.3429 21.3317 13.211 19.9926 13.468 18.7007C13.7249 17.4088 14.3593 16.2221 15.2907 15.2907C16.2221 14.3593 17.4088 13.7249 18.7007 13.468C19.9926 13.211 21.3317 13.3429 22.5487 13.847C23.7656 14.351 24.8058 15.2047 25.5376 16.2999C26.2694 17.3951 26.66 18.6828 26.66 20C26.66 20.8746 26.4877 21.7406 26.153 22.5487C25.8183 23.3567 25.3278 24.0909 24.7093 24.7093C24.0909 25.3278 23.3567 25.8183 22.5487 26.153C21.7406 26.4877 20.8746 26.66 20 26.66Z" fill="#1C1C1C"/>
</svg>
