<svg width="42" height="44" viewBox="0 0 42 44" fill="none" xmlns="http://www.w3.org/2000/svg">
<path fill-rule="evenodd" clip-rule="evenodd" d="M6 0.604004C4.54131 0.604004 3.14236 1.20761 2.11091 2.28204C1.07946 3.35647 0.5 4.8137 0.5 6.33317C0.5 7.85264 1.07946 9.30988 2.11091 10.3843C3.14236 11.4587 4.54131 12.0623 6 12.0623C7.45869 12.0623 8.85764 11.4587 9.88909 10.3843C10.9205 9.30988 11.5 7.85264 11.5 6.33317C11.5 4.8137 10.9205 3.35647 9.88909 2.28204C8.85764 1.20761 7.45869 0.604004 6 0.604004ZM3.5 6.33317C3.5 5.6425 3.76339 4.98012 4.23223 4.49175C4.70107 4.00337 5.33696 3.729 6 3.729C6.66304 3.729 7.29893 4.00337 7.76777 4.49175C8.23661 4.98012 8.5 5.6425 8.5 6.33317C8.5 7.02384 8.23661 7.68622 7.76777 8.17459C7.29893 8.66297 6.66304 8.93734 6 8.93734C5.33696 8.93734 4.70107 8.66297 4.23223 8.17459C3.76339 7.68622 3.5 7.02384 3.5 6.33317ZM0.5 14.6665C0.5 14.2521 0.658035 13.8547 0.93934 13.5616C1.22064 13.2686 1.60218 13.104 2 13.104H10C10.3978 13.104 10.7794 13.2686 11.0607 13.5616C11.342 13.8547 11.5 14.2521 11.5 14.6665V41.7498C11.5 42.1642 11.342 42.5617 11.0607 42.8547C10.7794 43.1477 10.3978 43.3123 10 43.3123H2C1.60218 43.3123 1.22064 43.1477 0.93934 42.8547C0.658035 42.5617 0.5 42.1642 0.5 41.7498V14.6665ZM3.5 16.229V40.1873H8.5V16.229H3.5ZM14.5 14.6665C14.5 14.2521 14.658 13.8547 14.9393 13.5616C15.2206 13.2686 15.6022 13.104 16 13.104H24C24.3978 13.104 24.7794 13.2686 25.0607 13.5616C25.342 13.8547 25.5 14.2521 25.5 14.6665V15.5707L26.37 15.1811C27.87 14.5133 29.4614 14.095 31.086 13.9415C36.636 13.4165 41.5 17.9582 41.5 23.7915V41.7498C41.5 42.1642 41.342 42.5617 41.0607 42.8547C40.7794 43.1477 40.3978 43.3123 40 43.3123H32C31.6022 43.3123 31.2206 43.1477 30.9393 42.8547C30.658 42.5617 30.5 42.1642 30.5 41.7498V27.1665C30.5 26.4758 30.2366 25.8135 29.7678 25.3251C29.2989 24.8367 28.663 24.5623 28 24.5623C27.337 24.5623 26.7011 24.8367 26.2322 25.3251C25.7634 25.8135 25.5 26.4758 25.5 27.1665V41.7498C25.5 42.1642 25.342 42.5617 25.0607 42.8547C24.7794 43.1477 24.3978 43.3123 24 43.3123H16C15.6022 43.3123 15.2206 43.1477 14.9393 42.8547C14.658 42.5617 14.5 42.1642 14.5 41.7498V14.6665ZM17.5 16.229V40.1873H22.5V27.1665C22.5 25.647 23.0795 24.1898 24.1109 23.1154C25.1424 22.0409 26.5413 21.4373 28 21.4373C29.4587 21.4373 30.8576 22.0409 31.8891 23.1154C32.9205 24.1898 33.5 25.647 33.5 27.1665V40.1873H38.5V23.7915C38.5 19.8248 35.178 16.6915 31.36 17.054C30.0483 17.1783 28.7635 17.5157 27.552 18.054L24.592 19.3769C24.3637 19.4791 24.1146 19.5205 23.8671 19.4976C23.6196 19.4747 23.3814 19.3881 23.174 19.2455C22.9666 19.103 22.7964 18.9091 22.6788 18.6811C22.5611 18.4531 22.4997 18.1982 22.5 17.9394V16.229H17.5Z" fill="#1C1C1C"/>
</svg>
