<svg width="40" height="41" viewBox="0 0 40 41" fill="none" xmlns="http://www.w3.org/2000/svg">
<path d="M38 10.5C35.6138 10.4975 33.3261 9.54851 31.6388 7.86122C29.9515 6.17393 29.0025 3.88619 29 1.5C29 1.10218 28.842 0.720644 28.5607 0.43934C28.2794 0.158035 27.8978 0 27.5 0H20C19.6022 0 19.2206 0.158035 18.9393 0.43934C18.658 0.720644 18.5 1.10218 18.5 1.5V26.25C18.4997 26.921 18.3193 27.5797 17.9777 28.1573C17.6361 28.7348 17.1458 29.2102 16.5579 29.5337C15.97 29.8572 15.3061 30.017 14.6354 29.9965C13.9646 29.976 13.3117 29.7759 12.7447 29.4171C12.1777 29.0582 11.7173 28.5538 11.4116 27.9565C11.106 27.3591 10.9662 26.6906 11.0069 26.0208C11.0476 25.351 11.2673 24.7044 11.643 24.1485C12.0188 23.5925 12.5368 23.1475 13.1431 22.86C13.3996 22.7383 13.6163 22.5463 13.7679 22.3063C13.9196 22.0663 14.0001 21.7883 14 21.5044V13.5C14.0001 13.2807 13.9521 13.0641 13.8594 12.8654C13.7668 12.6667 13.6317 12.4907 13.4636 12.3498C13.2956 12.209 13.0987 12.1067 12.8869 12.0501C12.675 11.9936 12.4534 11.9841 12.2375 12.0225C5.54562 13.215 0.5 19.3312 0.5 26.25C0.5 30.0293 2.00133 33.6539 4.67373 36.3263C7.34612 38.9987 10.9707 40.5 14.75 40.5C18.5293 40.5 22.1539 38.9987 24.8263 36.3263C27.4987 33.6539 29 30.0293 29 26.25V18.8044C31.7781 20.2538 34.8665 21.0073 38 21C38.3978 21 38.7794 20.842 39.0607 20.5607C39.342 20.2794 39.5 19.8978 39.5 19.5V12C39.5 11.6022 39.342 11.2206 39.0607 10.9393C38.7794 10.658 38.3978 10.5 38 10.5ZM36.5 17.9325C33.5687 17.6727 30.7618 16.6266 28.3756 14.9044C28.1513 14.7431 27.8869 14.6469 27.6114 14.6264C27.336 14.6059 27.0602 14.6618 26.8145 14.7881C26.5688 14.9143 26.3627 15.106 26.219 15.3419C26.0753 15.5778 25.9995 15.8488 26 16.125V26.25C26 29.2337 24.8147 32.0952 22.705 34.205C20.5952 36.3147 17.7337 37.5 14.75 37.5C11.7663 37.5 8.90483 36.3147 6.79505 34.205C4.68526 32.0952 3.5 29.2337 3.5 26.25C3.5 21.3937 6.62 17.0381 11 15.45V20.6381C10.0303 21.286 9.24508 22.1741 8.72075 23.2157C8.19642 24.2574 7.9509 25.4171 8.00813 26.5819C8.06537 27.7467 8.42339 28.8767 9.04732 29.862C9.67125 30.8472 10.5398 31.654 11.5683 32.2037C12.5968 32.7534 13.7502 33.0272 14.916 32.9986C16.0818 32.9699 17.2203 32.6397 18.2206 32.0401C19.2208 31.4405 20.0486 30.5919 20.6233 29.5772C21.1981 28.5625 21.5001 27.4162 21.5 26.25V3H26.0938C26.4311 5.64203 27.636 8.09733 29.5193 9.98069C31.4027 11.8641 33.858 13.0689 36.5 13.4062V17.9325Z" fill="#1C1C1C"/>
</svg>
