<svg width="108" height="28" viewBox="0 0 108 28" fill="none" xmlns="http://www.w3.org/2000/svg">
<path d="M17.4668 6.6152H19.1622V18.3758H24.2485V20.0655H17.4668V6.6152ZM29.5298 6.6152C30.5358 6.6152 31.5191 6.91251 32.3556 7.46954C33.192 8.02656 33.844 8.8182 34.2289 9.74452C34.6139 10.6708 34.7146 11.6901 34.5183 12.6734C34.3221 13.6567 33.8377 14.5599 33.1263 15.2689C32.415 15.9779 31.5087 16.4607 30.522 16.6562C29.5355 16.8518 28.5128 16.7515 27.5834 16.3678C26.6539 15.9841 25.8596 15.3344 25.3007 14.5007C24.7418 13.6671 24.4435 12.687 24.4435 11.6844C24.4435 11.0188 24.5751 10.3595 24.8306 9.74452C25.0862 9.12946 25.4609 8.57066 25.9333 8.09998C26.4055 7.62922 26.9662 7.25579 27.5834 7.00106C28.2004 6.74633 28.8619 6.6152 29.5298 6.6152ZM29.5298 15.0639C30.2004 15.0639 30.856 14.8657 31.4137 14.4944C31.9713 14.123 32.4059 13.5952 32.6625 12.9777C32.9192 12.3602 32.9864 11.6807 32.8555 11.0251C32.7247 10.3696 32.4017 9.76742 31.9275 9.2948C31.4533 8.82218 30.8491 8.50028 30.1913 8.36992C29.5335 8.23947 28.8518 8.30638 28.2322 8.56221C27.6126 8.81795 27.0829 9.25112 26.7104 9.80687C26.3378 10.3626 26.1389 11.0161 26.1389 11.6844C26.1434 12.5778 26.5026 13.4331 27.138 14.0632C27.7735 14.6933 28.6334 15.047 29.5298 15.047V15.0639ZM26.1389 18.3927H32.9207V20.0824H26.1389V18.3927ZM47.8405 20.0824H46.145V18.8743C45.0516 19.637 43.7497 20.047 42.4151 20.0487C41.277 20.0563 40.1553 19.7783 39.1534 19.2404C38.1514 18.7024 37.3014 17.9218 36.6817 16.9705C36.062 16.0191 35.6923 14.9276 35.6071 13.7965C35.5217 12.6655 35.7234 11.5312 36.1934 10.4982C36.6635 9.46521 37.3868 8.56669 38.2968 7.88555C39.2068 7.20433 40.2742 6.7623 41.4005 6.60025C42.527 6.43812 43.6762 6.56122 44.7423 6.95805C45.8085 7.35489 46.7573 8.01271 47.5014 8.87101L46.2552 9.97779C45.6893 9.34718 44.9741 8.8678 44.1746 8.58333C43.3752 8.29878 42.5171 8.21818 41.6784 8.34888C40.8397 8.47958 40.0472 8.81744 39.373 9.33155C38.6989 9.84574 38.1646 10.5198 37.8189 11.2925C37.4731 12.0651 37.3269 12.9117 37.3935 13.7551C37.4602 14.5986 37.7375 15.4119 38.2003 16.1211C38.6632 16.8303 39.2967 17.4128 40.0432 17.8155C40.7897 18.2182 41.6256 18.4282 42.4744 18.4265C43.1789 18.4279 43.8753 18.2777 44.5162 17.9861C45.157 17.6944 45.7271 17.2683 46.1874 16.7368H41.6097V15.047H47.8574L47.8405 20.0824ZM54.0796 6.649C55.0856 6.649 56.069 6.94631 56.9054 7.50333C57.7419 8.06036 58.3938 8.852 58.7788 9.77832C59.1637 10.7046 59.2644 11.7239 59.0682 12.7071C58.8719 13.6905 58.3876 14.5937 57.6762 15.3027C56.9648 16.0117 56.0585 16.4944 55.0719 16.69C54.0853 16.8856 53.0626 16.7853 52.1332 16.4016C51.2038 16.0179 50.4095 15.3682 49.8506 14.5345C49.2917 13.7009 48.9933 12.7208 48.9933 11.7182C48.9888 11.0482 49.1177 10.3841 49.3724 9.76404C49.627 9.14399 50.0025 8.58037 50.477 8.10589C50.9516 7.63133 51.5158 7.25528 52.1371 6.99937C52.7584 6.74354 53.4244 6.61292 54.0966 6.6152L54.0796 6.649ZM54.0796 15.0977C54.7503 15.0977 55.4059 14.8995 55.9635 14.5282C56.5211 14.1568 56.9558 13.629 57.2124 13.0115C57.4691 12.394 57.5362 11.7145 57.4053 11.0589C57.2745 10.4034 56.9515 9.80121 56.4773 9.32859C56.0031 8.85597 55.3989 8.53407 54.7412 8.40371C54.0834 8.27326 53.4016 8.34018 52.782 8.596C52.1624 8.85175 51.6328 9.28491 51.2602 9.84067C50.8876 10.3964 50.6888 11.0498 50.6888 11.7182C50.7022 12.6086 51.0676 13.4578 51.7058 14.0812C52.3439 14.7044 53.2031 15.0516 54.0966 15.047L54.0796 15.0977ZM50.6888 18.4265H57.4705V20.1162H50.6888V18.4265ZM60.9716 6.6152H62.667V20.0487H60.9716V6.6152ZM65.0152 6.6152H66.7106C66.7979 6.606 66.886 6.606 66.9734 6.6152C67.6834 6.53841 68.4018 6.61157 69.0816 6.8298C69.7614 7.04812 70.3875 7.40659 70.919 7.882C71.4506 8.35741 71.8757 8.93911 72.1668 9.58915C72.4579 10.2392 72.6082 10.9431 72.6082 11.6549C72.6082 12.3667 72.4579 13.0705 72.1668 13.7206C71.8757 14.3706 71.4506 14.9523 70.919 15.4277C70.3875 15.9031 69.7614 16.2616 69.0816 16.4799C68.4018 16.6981 67.6834 16.7713 66.9734 16.6945H66.7106V20.074H65.0152V6.6152ZM66.7106 8.30495V14.9879H66.9734C67.4523 15.0514 67.9392 15.0123 68.4017 14.873C68.8641 14.7337 69.2914 14.4976 69.6548 14.1804C70.0183 13.8633 70.3095 13.4723 70.509 13.0339C70.7086 12.5954 70.8118 12.1195 70.8118 11.638C70.8118 11.1565 70.7086 10.6806 70.509 10.2421C70.3095 9.80358 70.0183 9.41266 69.6548 9.09549C69.2914 8.77824 68.8641 8.54219 68.4017 8.40287C67.9392 8.26363 67.4523 8.22451 66.9734 8.28805C66.8811 8.2976 66.79 8.31745 66.7021 8.34719L66.7106 8.30495ZM78.9262 7.58681L77.6716 8.5753C77.4551 8.34989 77.1786 8.19072 76.8745 8.11654C76.5705 8.04236 76.2515 8.05622 75.955 8.1565C75.6585 8.2567 75.397 8.4392 75.201 8.68252C75.005 8.92584 74.8828 9.21986 74.8487 9.53001V9.66519C74.8487 10.4087 75.3658 10.9071 76.3746 10.9747C80.2571 11.2113 82.0373 13.0278 82.0373 15.4272V15.5793C81.937 16.5289 81.5652 17.4299 80.966 18.1751C80.3669 18.9202 79.5655 19.4781 78.6575 19.7825C77.7493 20.0868 76.7726 20.1249 75.8434 19.8919C74.9142 19.6591 74.0717 19.1651 73.416 18.4687L74.713 17.4718C75.0149 17.7943 75.3836 18.0474 75.7935 18.2138C76.2033 18.38 76.6446 18.4556 77.0866 18.4349C77.9032 18.4779 78.7047 18.2047 79.3238 17.6725C79.9431 17.1404 80.3321 16.3904 80.4097 15.5793V15.461C80.4097 13.2052 78.1887 12.7912 76.2644 12.6053C74.4842 12.4364 73.2041 11.3296 73.2041 9.73278V9.66519C73.2668 8.83384 73.6475 8.05824 74.2675 7.4986C74.8874 6.93887 75.6994 6.63776 76.5356 6.65745C76.9788 6.64444 77.4197 6.72411 77.8301 6.89148C78.2404 7.05885 78.6109 7.31011 78.9177 7.62905L78.9262 7.58681ZM88.6749 18.3336C90.7857 18.3336 92.4557 16.0609 92.4557 13.2643V6.50537H94.1512V13.2643C94.1512 16.9818 91.7097 19.9811 88.7088 19.9811C85.7079 19.9811 83.2665 16.9818 83.2665 13.2643V6.50537H84.9619V13.2643C84.8941 16.1031 86.5641 18.3758 88.6664 18.3758L88.6749 18.3336ZM107.164 20.0233H105.468V11.6591L101.56 16.7283L97.6522 11.6591V20.0487H95.9568V6.6152L101.552 13.9571L107.147 6.6152L107.164 20.0233Z" fill="#27272A"/>
<path d="M9.32862 4.5961C9.32862 3.37713 8.84279 2.2081 7.97795 1.34617C7.11311 0.484229 5.94011 0 4.71704 0C3.49397 0 2.32101 0.484229 1.45617 1.34617C0.591328 2.2081 0.105469 3.37713 0.105469 4.5961V18.4942L3.90323 21.2063V27.8131H5.53085V21.2063L9.32862 18.4942V4.5961ZM7.701 12.3689L5.53085 14.5318V12.5041L7.701 10.3412V12.3689ZM1.76699 10.3412L3.93714 12.5041V14.5318L1.76699 12.3689V10.3412ZM7.701 8.04317L4.71704 11.0171L1.73308 7.97558V5.94789L4.71704 8.92184L7.701 5.94789V8.04317ZM4.71704 1.62215C5.3733 1.62504 6.01051 1.84227 6.53107 2.24054C7.05165 2.63881 7.42685 3.19617 7.59928 3.82727L4.71704 6.69138L1.83481 3.82727C2.00091 3.18989 2.37342 2.62497 2.89456 2.22016C3.41571 1.81534 4.05632 1.59325 4.71704 1.58835V1.62215ZM1.73308 17.6747V14.6332L3.90323 16.796V19.2124L1.73308 17.6747ZM5.53085 19.2208V16.796L7.701 14.6332V17.6663L5.53085 19.2208Z" fill="#27272A"/>
</svg>
