<svg width="124" height="31" viewBox="0 0 124 31" fill="none" xmlns="http://www.w3.org/2000/svg">
<path d="M42.2814 22.083L37.8271 6.97982H42.3994L44.4643 16.2718H44.5823L47.0306 6.97982H50.6295L53.0778 16.3013H53.1958L55.2607 6.97982H59.8329L55.3787 22.083H51.4554L48.889 13.6465H48.7711L46.2047 22.083H42.2814Z" fill="#1F143F"/>
<path d="M63.0575 22.26C62.3348 22.26 61.6956 22.142 61.1401 21.906C60.5895 21.6651 60.1568 21.3013 59.8422 20.8146C59.5275 20.3278 59.3702 19.7084 59.3702 18.9562C59.3702 18.3367 59.4759 17.8082 59.6873 17.3706C59.8987 16.9282 60.1937 16.5668 60.5723 16.2866C60.9508 16.0063 61.3908 15.7925 61.8923 15.645C62.3987 15.4975 62.9444 15.4016 63.5295 15.3574C64.1637 15.3082 64.6725 15.2492 65.056 15.1804C65.4444 15.1066 65.7246 15.0058 65.8967 14.878C66.0688 14.7453 66.1548 14.5707 66.1548 14.3544V14.3249C66.1548 14.0299 66.0417 13.8038 65.8156 13.6465C65.5894 13.4891 65.2994 13.4105 64.9454 13.4105C64.557 13.4105 64.2399 13.4965 63.9941 13.6686C63.7532 13.8357 63.6081 14.0939 63.559 14.4429H59.8127C59.8618 13.7546 60.0806 13.1204 60.469 12.5403C60.8623 11.9552 61.4351 11.4882 62.1873 11.1391C62.9395 10.7851 63.8785 10.6081 65.0044 10.6081C65.8156 10.6081 66.5432 10.704 67.1873 10.8957C67.8313 11.0826 68.3795 11.3456 68.8318 11.6848C69.2841 12.0191 69.6283 12.4124 69.8642 12.8648C70.1051 13.3121 70.2256 13.7989 70.2256 14.3249V22.083H66.4203V20.4901H66.3318C66.1057 20.9129 65.8303 21.2546 65.5059 21.5152C65.1863 21.7757 64.82 21.965 64.407 22.083C63.999 22.201 63.5491 22.26 63.0575 22.26ZM64.3849 19.6936C64.6946 19.6936 64.9847 19.6297 65.2551 19.5019C65.5304 19.3741 65.7541 19.1897 65.9262 18.9488C66.0983 18.7079 66.1843 18.4154 66.1843 18.0712V17.1273C66.0762 17.1715 65.9606 17.2133 65.8377 17.2526C65.7197 17.292 65.5919 17.3288 65.4542 17.3633C65.3215 17.3977 65.1789 17.4296 65.0265 17.4591C64.879 17.4886 64.7241 17.5157 64.5619 17.5402C64.2473 17.5894 63.9891 17.6705 63.7876 17.7836C63.5909 17.8918 63.4434 18.027 63.3451 18.1892C63.2517 18.3465 63.205 18.5235 63.205 18.7202C63.205 19.0348 63.3156 19.2757 63.5368 19.4429C63.7581 19.6101 64.0408 19.6936 64.3849 19.6936Z" fill="#1F143F"/>
<path d="M83.1809 10.7556L79.3756 22.083H74.6559L70.8506 10.7556H75.1279L76.9568 18.2482H77.0748L78.9037 10.7556H83.1809Z" fill="#1F143F"/>
<path d="M89.4217 22.2895C88.2122 22.2895 87.17 22.0584 86.2948 21.5963C85.4246 21.1292 84.7536 20.4606 84.2816 19.5904C83.8145 18.7153 83.581 17.6681 83.581 16.4488C83.581 15.2787 83.817 14.2561 84.289 13.381C84.7609 12.5059 85.4271 11.8249 86.2875 11.3382C87.1478 10.8515 88.1631 10.6081 89.3332 10.6081C90.1886 10.6081 90.963 10.7409 91.6562 11.0064C92.3494 11.2718 92.9418 11.6578 93.4335 12.1642C93.9251 12.6656 94.3037 13.2753 94.5691 13.9931C94.8346 14.7109 94.9674 15.5196 94.9674 16.4193V17.3633H84.8494V15.1214H91.2211C91.2162 14.7969 91.1326 14.5117 90.9703 14.2659C90.813 14.0152 90.5992 13.821 90.3288 13.6833C90.0633 13.5408 89.7609 13.4695 89.4217 13.4695C89.0923 13.4695 88.7899 13.5408 88.5146 13.6833C88.2393 13.821 88.018 14.0127 87.8509 14.2586C87.6886 14.5044 87.6026 14.792 87.5928 15.1214V17.5402C87.5928 17.9041 87.669 18.2285 87.8214 18.5137C87.9738 18.7988 88.1926 19.0225 88.4777 19.1848C88.7629 19.347 89.107 19.4281 89.5102 19.4281C89.7904 19.4281 90.0461 19.3888 90.2771 19.3102C90.5131 19.2315 90.7147 19.1184 90.8818 18.9709C91.049 18.8185 91.1719 18.6366 91.2506 18.4252H94.9674C94.8395 19.2118 94.5372 19.8952 94.0603 20.4753C93.5834 21.0506 92.9517 21.4979 92.165 21.8175C91.3833 22.1322 90.4689 22.2895 89.4217 22.2895Z" fill="#1F143F"/>
<path d="M96.6285 22.083V10.7556H100.581V12.909H100.699C100.906 12.1125 101.233 11.53 101.68 11.1612C102.132 10.7925 102.661 10.6081 103.266 10.6081C103.443 10.6081 103.617 10.6229 103.789 10.6524C103.966 10.677 104.136 10.7138 104.298 10.763V14.2364C104.097 14.1676 103.848 14.116 103.553 14.0816C103.258 14.0471 103.005 14.0299 102.794 14.0299C102.395 14.0299 102.037 14.1209 101.717 14.3028C101.402 14.4798 101.154 14.7305 100.972 15.055C100.79 15.3746 100.699 15.7507 100.699 16.1833V22.083H96.6285Z" fill="#1F143F"/>
<path d="M105.633 22.083V10.7556H109.704V22.083H105.633ZM107.668 9.57568C107.118 9.57568 106.646 9.39378 106.252 9.02996C105.859 8.66615 105.662 8.22859 105.662 7.71728C105.662 7.20598 105.859 6.76842 106.252 6.40461C106.646 6.04079 107.118 5.85889 107.668 5.85889C108.224 5.85889 108.696 6.04079 109.084 6.40461C109.478 6.76842 109.674 7.20598 109.674 7.71728C109.674 8.22859 109.478 8.66615 109.084 9.02996C108.696 9.39378 108.224 9.57568 107.668 9.57568Z" fill="#1F143F"/>
<path d="M117.235 22.2895C116.006 22.2895 114.954 22.0461 114.079 21.5594C113.204 21.0678 112.532 20.3844 112.065 19.5093C111.598 18.6292 111.365 17.6091 111.365 16.4488C111.365 15.2885 111.598 14.2708 112.065 13.3957C112.532 12.5157 113.204 11.8323 114.079 11.3456C114.954 10.8539 116.006 10.6081 117.235 10.6081C118.464 10.6081 119.516 10.8539 120.391 11.3456C121.266 11.8323 121.938 12.5157 122.405 13.3957C122.872 14.2708 123.105 15.2885 123.105 16.4488C123.105 17.6091 122.872 18.6292 122.405 19.5093C121.938 20.3844 121.266 21.0678 120.391 21.5594C119.516 22.0461 118.464 22.2895 117.235 22.2895ZM117.264 19.2807C117.609 19.2807 117.906 19.1651 118.157 18.934C118.408 18.703 118.602 18.3736 118.739 17.9459C118.877 17.5181 118.946 17.0093 118.946 16.4193C118.946 15.8244 118.877 15.3156 118.739 14.8928C118.602 14.465 118.408 14.1356 118.157 13.9046C117.906 13.6735 117.609 13.558 117.264 13.558C116.901 13.558 116.588 13.6735 116.328 13.9046C116.067 14.1356 115.868 14.465 115.731 14.8928C115.593 15.3156 115.524 15.8244 115.524 16.4193C115.524 17.0093 115.593 17.5181 115.731 17.9459C115.868 18.3736 116.067 18.703 116.328 18.934C116.588 19.1651 116.901 19.2807 117.264 19.2807Z" fill="#1F143F"/>
<path fill-rule="evenodd" clip-rule="evenodd" d="M6.42307 2.70198C5.34865 3.45325 4.37709 4.34149 3.53368 5.34138C6.98023 5.02141 11.3589 5.54389 16.4426 8.08573C21.8712 10.8 26.2426 10.8918 29.2849 10.3049C29.0089 9.46915 28.6613 8.66588 28.2497 7.90227C24.7671 8.26958 20.3024 7.78338 15.0992 5.18186C11.7951 3.52982 8.88261 2.84928 6.42307 2.70198ZM26.2153 5.00663C23.4651 1.93381 19.4684 0 15.0199 0C13.7135 0 12.446 0.166802 11.2377 0.480247C12.8742 0.926793 14.6128 1.58009 16.4426 2.49501C20.2521 4.39973 23.541 5.01302 26.2153 5.00663ZM29.9354 13.2386C26.26 13.9644 21.1847 13.8153 15.0992 10.7726C9.40996 7.92795 4.8818 7.96377 1.82785 8.64245C1.67022 8.67745 1.51629 8.71424 1.36609 8.75254C0.966247 9.62212 0.647084 10.5365 0.418081 11.4861C0.662669 11.4208 0.915412 11.3587 1.17618 11.3007C4.88115 10.4774 10.116 10.5131 16.4426 13.6765C22.1319 16.5211 26.66 16.4853 29.714 15.8066C29.8187 15.7834 29.9218 15.7593 30.0232 15.7346C30.0343 15.4978 30.0398 15.2595 30.0398 15.0199C30.0398 14.4172 30.0044 13.8228 29.9354 13.2386ZM29.5328 18.9043C25.8931 19.5406 20.9655 19.2964 15.0992 16.3633C9.40996 13.5187 4.8818 13.5545 1.82785 14.2332C1.14996 14.3837 0.540146 14.5672 0.00220042 14.7609C0.000733724 14.847 0 14.9334 0 15.0199C0 23.3152 6.72464 30.0398 15.0199 30.0398C21.9719 30.0398 27.8209 25.3167 29.5328 18.9043Z" fill="#7F57F1"/>
</svg>
