<svg width="143" height="28" viewBox="0 0 143 28" fill="none" xmlns="http://www.w3.org/2000/svg">
<path d="M10.317 7.87169C10.4334 7.75964 10.5264 7.62668 10.5907 7.48049C10.6551 7.3343 10.6894 7.17776 10.6917 7.01989C10.694 6.86203 10.6643 6.70596 10.6042 6.56067C10.5442 6.41539 10.455 6.28376 10.3418 6.17337C10.2287 6.063 10.0937 5.97604 9.94483 5.91753C9.79593 5.85901 9.63598 5.83009 9.47422 5.83242C9.31245 5.83477 9.15207 5.86832 9.00228 5.93115C8.85251 5.99399 8.71632 6.08487 8.60156 6.19855C7.56456 7.21217 6.85216 8.49658 6.5544 9.88945C6.25663 11.2823 6.38688 12.7211 6.92869 14.0239C7.47048 15.3267 8.3995 16.4351 9.59831 17.2089C10.7971 17.9828 12.2119 18.3873 13.6638 18.3713C15.1157 18.3555 16.5396 17.9199 17.7554 17.1196C18.9713 16.3193 19.9245 15.1903 20.4945 13.8753C21.0647 12.5603 21.2261 11.1183 20.9582 9.73166C20.6905 8.34499 20.0058 7.07588 18.9904 6.08474C18.8778 5.97488 18.7436 5.88822 18.5954 5.82973C18.4473 5.77124 18.2882 5.74204 18.1271 5.74382C17.9661 5.74559 17.8063 5.7783 17.6569 5.84008C17.5075 5.90185 17.3714 5.99148 17.2563 6.10386C17.1413 6.21622 17.0495 6.34913 16.9864 6.49498C16.9232 6.64084 16.8899 6.7968 16.8881 6.95394C16.8864 7.11107 16.9165 7.26632 16.9765 7.41083C17.0366 7.55533 17.1256 7.68624 17.2382 7.79611C17.9152 8.45655 18.3721 9.30241 18.5508 10.2267C18.7296 11.151 18.6221 12.1123 18.2423 12.9889C17.8624 13.8656 17.2272 14.6183 16.4167 15.1518C15.6063 15.6853 14.6572 15.9757 13.6893 15.9864C12.7214 15.997 11.7783 15.7273 10.9792 15.2114C10.1801 14.6955 9.56095 13.9565 9.19994 13.088C8.83894 12.2195 8.75234 11.2604 8.9511 10.3319C9.14985 9.40345 9.62504 8.54739 10.3166 7.87195L10.317 7.87169Z" fill="url(#paint0_linear_155_231)"/>
<path d="M19.0662 0.0899541C18.2605 0.0966135 17.4607 0.25919 16.7131 0.568276C15.9655 0.877362 15.2849 1.32682 14.7107 1.89062C14.478 2.11734 14.1648 2.24668 13.8396 2.25023C13.5144 2.25379 13.2038 2.13128 12.9761 1.90957C11.8372 0.801377 10.2845 0.189032 8.65864 0.206868C7.03278 0.224703 5.46648 0.871261 4.30334 2.00471C2.39863 3.86671 1.09007 6.2262 0.543075 8.78492C-0.0039193 11.3436 0.235205 13.9867 1.23023 16.38C2.22524 18.7734 3.9315 20.8095 6.13327 22.231C8.33506 23.6525 10.9335 24.3957 13.6002 24.3664C16.2669 24.3372 18.882 23.5369 21.1151 22.0668C23.3483 20.5967 25.099 18.5226 26.1461 16.107C27.1931 13.6913 27.4896 11.0423 26.9978 8.49499C26.5061 5.94766 25.2484 3.61629 23.3835 1.79561C22.8215 1.24428 22.1504 0.809642 21.4093 0.516866C20.6683 0.224089 19.8718 0.0789876 19.0662 0.0899541ZM21.6303 3.50763C23.1579 4.99758 24.1884 6.90591 24.5917 8.99135C24.995 11.0768 24.7531 13.2456 23.8963 15.2236C23.0394 17.2016 21.6064 18.8999 19.7782 20.1038C17.9501 21.3076 15.8089 21.963 13.6256 21.9869C11.4424 22.0109 9.31494 21.4024 7.51241 20.2383C5.70988 19.0743 4.31319 17.4069 3.49899 15.4473C2.68478 13.4877 2.48963 11.3236 2.93819 9.2288C3.38674 7.13403 4.45888 5.20263 6.01901 3.67883C6.71696 2.99876 7.65678 2.61083 8.63234 2.60012C9.60792 2.58941 10.5396 2.95681 11.223 3.62172C11.9062 4.28668 12.8378 4.65411 13.8133 4.64344C14.7888 4.63276 15.7285 4.24482 16.4263 3.56474C17.1237 2.88368 18.0637 2.49505 19.0396 2.48434C20.0155 2.47363 20.9473 2.84171 21.63 3.50763" fill="url(#paint1_linear_155_231)"/>
<path d="M13.7021 13.321C14.8035 13.3138 15.7098 12.4362 15.7265 11.3607C15.7432 10.2853 14.8639 9.41928 13.7625 9.42646C12.6611 9.43364 11.7548 10.3113 11.7381 11.3867C11.7214 12.4622 12.6007 13.3282 13.7021 13.321Z" fill="url(#paint2_linear_155_231)"/>
<path d="M41.6786 21.3835C46.1171 21.3884 48.9718 18.8188 49.3079 15.1567L45.3294 15.1524C44.9541 17.0057 43.575 18.0714 41.7467 18.0695C39.148 18.0666 37.4908 15.9415 37.5265 12.4139C37.5618 8.93127 39.2963 6.84355 41.8605 6.84635C43.8612 6.84853 45.0788 8.10812 45.3839 9.77115L49.3624 9.77549C49.1129 6.03414 46.1482 3.57056 41.8362 3.56586C36.6619 3.56021 33.3592 7.20781 33.3058 12.4767C33.2529 17.7007 36.4008 21.3778 41.6786 21.3835Z" fill="#18181B"/>
<path d="M51.9465 21.0577L56.109 21.0623L56.2118 10.9176C56.234 8.72695 57.9401 7.17845 60.2283 7.18095C60.9297 7.18171 61.8023 7.30624 62.1577 7.41897L62.1956 3.67794C61.8168 3.61012 61.1618 3.56447 60.7019 3.56397C58.6781 3.56176 56.9765 4.68335 56.3123 6.68236L56.1283 6.68216L56.1574 3.80617L52.1214 3.80176L51.9465 21.0577Z" fill="#18181B"/>
<path d="M71.0385 21.4156C76.2129 21.4212 79.5376 17.8635 79.5917 12.5272C79.6459 7.17966 76.3935 3.60355 71.2191 3.59791C66.0447 3.59226 62.7199 7.1612 62.6657 12.5087C62.6116 17.8451 65.8641 21.4099 71.0385 21.4156ZM71.0945 18.1576C68.2314 18.1545 66.8538 15.659 66.8858 12.5021C66.9178 9.34526 68.3463 6.81906 71.2094 6.82219C74.0266 6.82526 75.4038 9.35452 75.3718 12.5114C75.3398 15.6682 73.9117 18.1607 71.0945 18.1576Z" fill="#18181B"/>
<path d="M85.489 21.0943L89.8355 21.099L93.2653 9.44141L93.5068 9.44167L96.7002 21.1065L101.035 21.1113L106.212 3.86077L101.957 3.85613L98.7765 15.9185L98.604 15.9183L95.5527 3.84914L91.3557 3.84456L88.0592 15.9742L87.8982 15.974L84.9165 3.83754L80.6735 3.83291L85.489 21.0943Z" fill="#18181B"/>
<path d="M112.489 11.0127C112.514 8.51871 114.069 7.0824 116.266 7.08479C118.416 7.08714 119.69 8.47036 119.666 10.7734L119.561 21.1315L123.724 21.136L123.835 10.1488C123.889 6.0146 121.498 3.65275 117.853 3.64878C115.208 3.64589 113.379 4.87969 112.554 6.79988L112.347 6.79965L112.377 3.86749L108.399 3.86315L108.224 21.1191L112.386 21.1236L112.489 11.0127Z" fill="#18181B"/>
<path d="M129.125 27.613C132.368 27.6165 134.258 25.9896 135.287 23.2382L142.577 3.9229L138.127 3.89558L133.913 16.923L133.729 16.9228L129.791 3.88649L125.375 3.88167L131.602 21.5041L131.236 22.4362C130.445 24.4013 129.225 24.5348 127.414 24.0161L126.416 27.1831C126.977 27.4084 127.987 27.6117 129.125 27.613Z" fill="#18181B"/>
<defs>
<linearGradient id="paint0_linear_155_231" x1="7.67277" y1="5.81162" x2="20.8165" y2="7.25498" gradientUnits="userSpaceOnUse">
<stop stop-color="#D9B227"/>
<stop offset="1" stop-color="#FD4141"/>
</linearGradient>
<linearGradient id="paint1_linear_155_231" x1="2.61415" y1="0.196736" x2="26.7771" y2="2.74678" gradientUnits="userSpaceOnUse">
<stop stop-color="#D9B227"/>
<stop offset="1" stop-color="#FD4141"/>
</linearGradient>
<linearGradient id="paint2_linear_155_231" x1="12.0914" y1="9.43735" x2="15.67" y2="9.78948" gradientUnits="userSpaceOnUse">
<stop stop-color="#D9B227"/>
<stop offset="1" stop-color="#FD4141"/>
</linearGradient>
</defs>
</svg>
