<svg width="306" height="341" viewBox="0 0 306 341" fill="none" xmlns="http://www.w3.org/2000/svg">
<path d="M111.073 167.226C111.073 176.082 112.918 183.831 116.608 190.473C120.544 196.869 125.71 201.912 132.106 205.602C138.748 209.046 146.251 210.768 154.615 210.768C162.733 210.768 169.99 209.046 176.386 205.602C183.028 201.912 188.194 196.869 191.884 190.473C195.82 183.831 197.788 176.082 197.788 167.226C197.788 158.616 195.82 150.99 191.884 144.348C188.194 137.706 183.028 132.54 176.386 128.85C169.99 125.16 162.733 123.315 154.615 123.315C146.251 123.315 138.748 125.16 132.106 128.85C125.71 132.54 120.544 137.706 116.608 144.348C112.918 150.99 111.073 158.616 111.073 167.226ZM153.877 0.807007H232.843L149.449 94.164L136.534 99.699C143.422 92.811 149.941 88.383 156.091 86.415C162.487 84.447 170.359 83.463 179.707 83.463C189.301 83.463 198.772 85.431 208.12 89.367C217.714 93.057 226.324 98.592 233.95 105.972C241.822 113.106 247.972 121.839 252.4 132.171C257.074 142.503 259.411 154.188 259.411 167.226C259.411 188.382 254.614 206.217 245.02 220.731C235.672 234.999 223.003 245.823 207.013 253.203C191.269 260.337 173.803 263.904 154.615 263.904C135.181 263.904 117.469 260.337 101.479 253.203C85.735 245.823 73.066 234.999 63.472 220.731C54.124 206.217 49.45 188.382 49.45 167.226C49.45 153.45 52.279 140.658 57.937 128.85C63.841 117.042 70.975 105.972 79.339 95.64L153.877 0.807007Z" fill="#FF0000"/>
<path d="M6.26101 315.545C7.03834 316.923 7.88634 318.124 8.80501 319.149C9.75901 320.174 10.8013 320.969 11.932 321.534C13.0627 322.099 14.2817 322.382 15.589 322.382C17.1083 322.382 18.345 321.993 19.299 321.216C20.253 320.439 20.73 319.379 20.73 318.036C20.73 316.87 20.4297 315.934 19.829 315.227C19.2637 314.52 18.398 313.902 17.232 313.372C16.1013 312.807 14.7057 312.206 13.045 311.57C12.1617 311.252 11.137 310.828 9.97101 310.298C8.84034 309.733 7.76268 309.026 6.73801 308.178C5.71334 307.295 4.86534 306.235 4.19401 304.998C3.52268 303.726 3.18701 302.207 3.18701 300.44C3.18701 298.32 3.71701 296.5 4.77701 294.981C5.87234 293.426 7.33868 292.243 9.17601 291.43C11.0487 290.582 13.1333 290.158 15.43 290.158C17.7973 290.158 19.829 290.564 21.525 291.377C23.2563 292.154 24.6873 293.161 25.818 294.398C26.984 295.599 27.885 296.854 28.521 298.161L22.585 301.447C22.0903 300.564 21.4897 299.769 20.783 299.062C20.1117 298.32 19.3343 297.737 18.451 297.313C17.5677 296.854 16.5607 296.624 15.43 296.624C13.946 296.624 12.833 296.977 12.091 297.684C11.349 298.355 10.978 299.15 10.978 300.069C10.978 300.988 11.2783 301.8 11.879 302.507C12.4797 303.178 13.3983 303.832 14.635 304.468C15.8717 305.069 17.4263 305.687 19.299 306.323C20.5003 306.747 21.6487 307.277 22.744 307.913C23.8747 308.549 24.8817 309.326 25.765 310.245C26.6837 311.128 27.3903 312.188 27.885 313.425C28.415 314.626 28.68 316.022 28.68 317.612C28.68 319.414 28.3267 321.022 27.62 322.435C26.9133 323.848 25.9417 325.05 24.705 326.039C23.4683 326.993 22.0727 327.717 20.518 328.212C18.9987 328.742 17.391 329.007 15.695 329.007C13.4337 329.007 11.3137 328.583 9.33501 327.735C7.39168 326.852 5.69568 325.668 4.24701 324.184C2.79834 322.7 1.66768 321.092 0.855011 319.361L6.26101 315.545ZM33.9051 294.186C33.9051 293.055 34.3114 292.137 35.1241 291.43C35.9367 290.688 36.9084 290.317 38.0391 290.317C39.1697 290.317 40.1237 290.688 40.9011 291.43C41.7137 292.137 42.1201 293.055 42.1201 294.186C42.1201 295.281 41.7137 296.2 40.9011 296.942C40.1237 297.684 39.1697 298.055 38.0391 298.055C36.9084 298.055 35.9367 297.684 35.1241 296.942C34.3114 296.2 33.9051 295.281 33.9051 294.186ZM34.6471 303.62H41.3251V328H34.6471V303.62ZM63.4517 303.62H71.0307L62.0207 315.439L71.5607 328H63.9817L58.4697 320.262L53.0637 328H45.2197L54.8657 315.439L45.7497 303.62H53.5937L58.4697 310.669L63.4517 303.62ZM75.5925 290.9H83.3305V328H75.5925V290.9ZM88.2065 328H80.4685V321.11H87.9415C89.5668 321.11 91.1038 320.898 92.5525 320.474C94.0011 320.015 95.2731 319.308 96.3685 318.354C97.4638 317.4 98.3118 316.199 98.9125 314.75C99.548 313.266 99.866 311.499 99.866 309.45C99.866 307.401 99.548 305.652 98.9125 304.203C98.3118 302.719 97.4638 301.5 96.3685 300.546C95.2731 299.592 94.0011 298.903 92.5525 298.479C91.1038 298.02 89.5668 297.79 87.9415 297.79H80.4685V290.9H88.2065C92.0931 290.9 95.4851 291.66 98.3825 293.179C101.315 294.698 103.594 296.854 105.219 299.645C106.845 302.401 107.657 305.669 107.657 309.45C107.657 313.231 106.845 316.517 105.219 319.308C103.594 322.064 101.315 324.202 98.3825 325.721C95.4851 327.24 92.0931 328 88.2065 328ZM124.396 328.53C121.746 328.53 119.432 328 117.453 326.94C115.474 325.88 113.937 324.414 112.842 322.541C111.782 320.633 111.252 318.389 111.252 315.81C111.252 313.195 111.782 310.952 112.842 309.079C113.937 307.171 115.474 305.705 117.453 304.68C119.432 303.62 121.764 303.09 124.449 303.09C127.134 303.09 129.413 303.585 131.286 304.574C133.194 305.528 134.643 306.941 135.632 308.814C136.621 310.651 137.116 312.877 137.116 315.492C137.116 315.81 137.098 316.146 137.063 316.499C137.063 316.852 137.045 317.135 137.01 317.347H115.174V313.107H131.021L129.166 315.545C129.307 315.333 129.431 315.05 129.537 314.697C129.678 314.308 129.749 313.99 129.749 313.743C129.749 312.542 129.519 311.517 129.06 310.669C128.636 309.821 128.018 309.15 127.205 308.655C126.392 308.16 125.438 307.913 124.343 307.913C123 307.913 121.87 308.213 120.951 308.814C120.068 309.379 119.379 310.245 118.884 311.411C118.425 312.542 118.177 313.955 118.142 315.651C118.142 317.276 118.372 318.654 118.831 319.785C119.326 320.916 120.05 321.781 121.004 322.382C121.958 322.983 123.106 323.283 124.449 323.283C125.968 323.283 127.258 323 128.318 322.435C129.413 321.834 130.314 320.951 131.021 319.785L137.01 321.64C135.738 323.937 134.042 325.668 131.922 326.834C129.837 327.965 127.329 328.53 124.396 328.53ZM143.512 319.573C144.537 320.527 145.491 321.304 146.374 321.905C147.258 322.47 148.088 322.894 148.865 323.177C149.678 323.46 150.438 323.601 151.144 323.601C152.063 323.601 152.77 323.407 153.264 323.018C153.759 322.594 154.006 322.029 154.006 321.322C154.006 320.686 153.794 320.156 153.37 319.732C152.982 319.273 152.399 318.866 151.621 318.513C150.844 318.16 149.855 317.789 148.653 317.4C147.523 316.976 146.427 316.481 145.367 315.916C144.307 315.315 143.424 314.538 142.717 313.584C142.046 312.595 141.71 311.34 141.71 309.821C141.71 308.372 142.099 307.153 142.876 306.164C143.654 305.139 144.696 304.38 146.003 303.885C147.346 303.355 148.83 303.09 150.455 303.09C151.833 303.09 153.123 303.267 154.324 303.62C155.526 303.973 156.639 304.45 157.663 305.051C158.688 305.616 159.589 306.288 160.366 307.065L157.345 311.305C156.462 310.351 155.402 309.574 154.165 308.973C152.964 308.372 151.78 308.072 150.614 308.072C149.837 308.072 149.219 308.231 148.759 308.549C148.335 308.832 148.123 309.273 148.123 309.874C148.123 310.404 148.335 310.881 148.759 311.305C149.219 311.694 149.855 312.047 150.667 312.365C151.515 312.683 152.469 313.072 153.529 313.531C154.837 314.026 156.038 314.591 157.133 315.227C158.264 315.828 159.165 316.587 159.836 317.506C160.508 318.425 160.843 319.626 160.843 321.11C160.843 323.548 160.048 325.456 158.458 326.834C156.868 328.177 154.678 328.848 151.886 328.848C150.155 328.848 148.565 328.618 147.116 328.159C145.703 327.7 144.413 327.099 143.247 326.357C142.117 325.58 141.092 324.749 140.173 323.866L143.512 319.573ZM165.266 294.186C165.266 293.055 165.673 292.137 166.485 291.43C167.298 290.688 168.27 290.317 169.4 290.317C170.531 290.317 171.485 290.688 172.262 291.43C173.075 292.137 173.481 293.055 173.481 294.186C173.481 295.281 173.075 296.2 172.262 296.942C171.485 297.684 170.531 298.055 169.4 298.055C168.27 298.055 167.298 297.684 166.485 296.942C165.673 296.2 165.266 295.281 165.266 294.186ZM166.008 303.62H172.686V328H166.008V303.62ZM178.807 329.696H185.538C185.573 330.756 185.856 331.657 186.386 332.399C186.916 333.176 187.64 333.777 188.559 334.201C189.478 334.625 190.555 334.837 191.792 334.837C192.923 334.837 193.983 334.572 194.972 334.042C195.997 333.512 196.809 332.699 197.41 331.604C198.046 330.509 198.364 329.131 198.364 327.47V303.62H204.989V327.47C204.989 330.473 204.388 332.947 203.187 334.89C202.021 336.833 200.449 338.247 198.47 339.13C196.491 340.049 194.336 340.508 192.004 340.508C189.177 340.508 186.81 340.049 184.902 339.13C182.994 338.247 181.528 336.975 180.503 335.314C179.514 333.689 178.948 331.816 178.807 329.696ZM178.33 315.598C178.33 312.877 178.878 310.598 179.973 308.761C181.068 306.888 182.517 305.475 184.319 304.521C186.121 303.567 188.029 303.09 190.043 303.09C192.092 303.09 193.894 303.585 195.449 304.574C197.039 305.563 198.276 306.994 199.159 308.867C200.078 310.704 200.537 312.948 200.537 315.598C200.537 318.213 200.078 320.456 199.159 322.329C198.276 324.202 197.039 325.633 195.449 326.622C193.894 327.576 192.092 328.053 190.043 328.053C188.029 328.053 186.121 327.576 184.319 326.622C182.517 325.668 181.068 324.272 179.973 322.435C178.878 320.562 178.33 318.283 178.33 315.598ZM185.432 315.598C185.432 317.047 185.732 318.283 186.333 319.308C186.934 320.297 187.746 321.057 188.771 321.587C189.796 322.117 190.891 322.382 192.057 322.382C193.082 322.382 194.071 322.135 195.025 321.64C196.014 321.11 196.809 320.35 197.41 319.361C198.046 318.336 198.364 317.082 198.364 315.598C198.364 314.467 198.187 313.478 197.834 312.63C197.481 311.782 196.986 311.075 196.35 310.51C195.749 309.945 195.078 309.521 194.336 309.238C193.594 308.92 192.834 308.761 192.057 308.761C190.891 308.761 189.796 309.026 188.771 309.556C187.746 310.086 186.934 310.863 186.333 311.888C185.732 312.877 185.432 314.114 185.432 315.598ZM227.39 313.16C227.39 311.535 227.072 310.298 226.436 309.45C225.8 308.602 224.775 308.178 223.362 308.178C222.408 308.178 221.56 308.39 220.818 308.814C220.076 309.203 219.511 309.768 219.122 310.51C218.733 311.252 218.539 312.135 218.539 313.16V328H211.649V303.62H218.539V307.33C219.281 305.952 220.253 304.91 221.454 304.203C222.691 303.461 224.175 303.09 225.906 303.09C228.803 303.09 230.959 303.92 232.372 305.581C233.785 307.206 234.492 309.485 234.492 312.418V328H227.39V313.16ZM241.89 324.873C241.89 323.672 242.297 322.665 243.109 321.852C243.957 321.004 245 320.58 246.236 320.58C247.508 320.58 248.551 321.004 249.363 321.852C250.176 322.665 250.582 323.672 250.582 324.873C250.582 326.004 250.176 326.993 249.363 327.841C248.551 328.689 247.508 329.113 246.236 329.113C245 329.113 243.957 328.689 243.109 327.841C242.297 326.993 241.89 326.004 241.89 324.873ZM263.166 315.81C263.166 317.223 263.484 318.46 264.12 319.52C264.756 320.58 265.604 321.41 266.664 322.011C267.759 322.612 268.961 322.912 270.268 322.912C271.328 322.912 272.353 322.753 273.342 322.435C274.331 322.082 275.215 321.622 275.992 321.057C276.805 320.456 277.423 319.767 277.847 318.99V326.039C276.999 326.816 275.886 327.435 274.508 327.894C273.165 328.318 271.593 328.53 269.791 328.53C267.212 328.53 264.88 328 262.795 326.94C260.746 325.88 259.12 324.396 257.919 322.488C256.753 320.545 256.17 318.319 256.17 315.81C256.17 313.266 256.753 311.04 257.919 309.132C259.12 307.224 260.746 305.74 262.795 304.68C264.88 303.62 267.212 303.09 269.791 303.09C271.593 303.09 273.165 303.32 274.508 303.779C275.886 304.203 276.999 304.786 277.847 305.528V312.577C277.423 311.8 276.787 311.128 275.939 310.563C275.126 309.962 274.225 309.503 273.236 309.185C272.247 308.867 271.257 308.708 270.268 308.708C268.961 308.708 267.759 309.026 266.664 309.662C265.604 310.263 264.756 311.093 264.12 312.153C263.484 313.213 263.166 314.432 263.166 315.81ZM288.779 320.421C288.779 321.128 288.955 321.746 289.309 322.276C289.662 322.771 290.139 323.159 290.74 323.442C291.376 323.689 292.065 323.813 292.807 323.813C293.867 323.813 294.821 323.601 295.669 323.177C296.517 322.718 297.206 322.082 297.736 321.269C298.266 320.421 298.531 319.414 298.531 318.248L299.379 321.428C299.379 322.983 298.937 324.29 298.054 325.35C297.206 326.41 296.093 327.205 294.715 327.735C293.372 328.265 291.959 328.53 290.475 328.53C288.955 328.53 287.542 328.23 286.235 327.629C284.927 327.028 283.867 326.163 283.055 325.032C282.277 323.866 281.889 322.453 281.889 320.792C281.889 318.425 282.719 316.552 284.38 315.174C286.04 313.796 288.39 313.107 291.429 313.107C292.983 313.107 294.344 313.266 295.51 313.584C296.711 313.902 297.718 314.291 298.531 314.75C299.343 315.209 299.926 315.651 300.28 316.075V319.255C299.326 318.548 298.248 318.018 297.047 317.665C295.881 317.312 294.644 317.135 293.337 317.135C292.277 317.135 291.411 317.276 290.74 317.559C290.068 317.806 289.574 318.177 289.256 318.672C288.938 319.131 288.779 319.714 288.779 320.421ZM286.129 310.51L283.585 305.846C284.857 305.175 286.411 304.539 288.249 303.938C290.086 303.302 292.135 302.984 294.397 302.984C296.481 302.984 298.336 303.284 299.962 303.885C301.587 304.486 302.859 305.369 303.778 306.535C304.696 307.666 305.156 309.061 305.156 310.722V328H298.531V312.153C298.531 311.482 298.425 310.916 298.213 310.457C298.001 309.962 297.665 309.556 297.206 309.238C296.782 308.92 296.269 308.69 295.669 308.549C295.068 308.408 294.397 308.337 293.655 308.337C292.524 308.337 291.446 308.461 290.422 308.708C289.397 308.955 288.514 309.256 287.772 309.609C287.03 309.962 286.482 310.263 286.129 310.51Z" fill="black"/>
</svg>
