<svg width="75" height="44" viewBox="0 0 75 44" fill="none" xmlns="http://www.w3.org/2000/svg">
<path d="M69.8686 15.3268C71.9574 18.377 70.4212 22.5308 74.5501 24.8376C74.6484 23.8627 74.818 23.2609 74.7509 22.6796C73.9362 16.2421 73.1276 9.81047 72.1914 3.37432C72.0382 2.32682 71.5098 0.825948 70.7302 0.392862C69.2894 -0.399611 68.4427 0.855312 67.743 2.01128C65.5961 5.59906 63.3959 9.15599 61.203 12.7537C63.6806 13.7221 63.6806 13.7221 68.2353 8.33895C68.4367 21.7536 57.3507 30.6664 44.4581 27.2534C44.7727 26.0142 45.1286 24.7938 45.4024 23.5474C46.1978 19.8824 45.8843 16.2935 43.9412 12.7854C42.5117 10.2045 40.461 8.54506 37.5481 8.51625C34.5484 8.49014 32.9263 10.4005 31.8877 12.9279C29.64 18.3935 31.4241 23.9337 36.6024 27.5806C37.2438 28.0319 37.8189 28.5734 38.6304 29.2508C33.8366 34.9091 27.9874 38.573 20.5563 39.2801C9.09839 40.376 3.40494 31.709 1.95781 23.6105C1.78308 22.6085 1.78141 21.5896 1.65346 19.9525C0.0956802 21.8825 0.1899 23.7094 0.299637 25.4848C0.705667 32.4751 6.19725 39.5429 12.9665 41.863C17.2975 43.3434 21.578 43.4095 25.7576 42.1115C31.9008 40.1948 37.1401 36.9607 41.1233 31.9449C41.5168 31.4553 41.94 30.9842 42.4848 30.3553C48.5071 31.5372 54.4609 31.9351 59.9348 28.9467C65.2893 26.0177 67.2935 20.5434 69.8686 15.3268ZM40.7415 26.1191C34.7976 23.73 32.3154 18.7438 34.6557 14.0862C35.2068 12.9828 36.5054 11.9003 37.6947 11.6476C39.3839 11.2911 40.5294 12.7272 41.2688 14.3051C43.1747 18.3908 42.7081 22.1833 40.7415 26.1191Z" fill="#1C1C1C"/>
</svg>
