<svg width="62" height="62" viewBox="0 0 62 62" fill="none" xmlns="http://www.w3.org/2000/svg">
<g clip-path="url(#clip0_2429_1795)">
<path d="M19.7893 13.2987C20.1095 13.2129 20.4507 13.2578 20.7378 13.4235C21.0249 13.5893 21.2344 13.8623 21.3202 14.1825L22.6143 19.0122C22.7001 19.3324 22.6552 19.6736 22.4894 19.9607C22.3237 20.2478 22.0507 20.4573 21.7304 20.5431C21.4102 20.6289 21.069 20.584 20.7819 20.4182C20.4948 20.2525 20.2853 19.9794 20.1995 19.6592L18.9054 14.8296C18.8196 14.5094 18.8645 14.1682 19.0303 13.8811C19.196 13.594 19.4691 13.3845 19.7893 13.2987ZM11.4374 19.7035C11.5194 19.561 11.6288 19.4361 11.7592 19.3359C11.8895 19.2358 12.0384 19.1623 12.1972 19.1198C12.356 19.0772 12.5217 19.0664 12.6847 19.088C12.8477 19.1095 13.0048 19.163 13.1471 19.2454L17.4772 21.7475C17.6224 21.8279 17.7501 21.9365 17.8528 22.0669C17.9556 22.1972 18.0313 22.3467 18.0757 22.5067C18.12 22.6666 18.1321 22.8338 18.1111 22.9985C18.0902 23.1631 18.0366 23.3219 17.9537 23.4657C17.8707 23.6094 17.7599 23.7352 17.6278 23.8357C17.4956 23.9361 17.3448 24.0093 17.1841 24.0509C17.0235 24.0924 16.8561 24.1016 16.6918 24.0778C16.5276 24.054 16.3697 23.9977 16.2274 23.9122L11.8979 21.4126C11.6109 21.2468 11.4015 20.9738 11.3157 20.6537C11.2299 20.3335 11.2748 19.9924 11.4405 19.7053M30.2277 14.6713C30.3702 14.7533 30.4951 14.8626 30.5953 14.993C30.6955 15.1234 30.769 15.2722 30.8115 15.4311C30.8541 15.5899 30.8649 15.7555 30.8433 15.9185C30.8217 16.0815 30.7682 16.2387 30.6858 16.381L28.1783 20.71C28.0978 20.8551 27.9893 20.9828 27.8589 21.0855C27.7286 21.1883 27.579 21.2641 27.4191 21.3084C27.2592 21.3528 27.092 21.3648 26.9273 21.3439C26.7627 21.3229 26.6038 21.2694 26.4601 21.1864C26.3164 21.1034 26.1906 20.9926 26.0901 20.8605C25.9896 20.7284 25.9165 20.5776 25.8749 20.4169C25.8334 20.2562 25.8242 20.0888 25.848 19.9246C25.8718 19.7603 25.9281 19.6024 26.0136 19.4601L28.5132 15.1307C28.679 14.8436 28.952 14.6342 29.2721 14.5484C29.5923 14.4626 29.9334 14.5075 30.2205 14.6732M10.0666 30.1389C9.98077 29.8187 10.0257 29.4775 10.1915 29.1904C10.3572 28.9033 10.6302 28.6938 10.9505 28.608L15.7801 27.3139C16.1003 27.2281 16.4415 27.273 16.7286 27.4388C17.0157 27.6045 17.2252 27.8775 17.311 28.1978C17.3968 28.518 17.3519 28.8592 17.1861 29.1463C17.0204 29.4334 16.7474 29.6429 16.4271 29.7287L11.5975 31.0228C11.2773 31.1086 10.9361 31.0637 10.649 30.8979C10.3619 30.7321 10.1524 30.4591 10.0666 30.1389ZM25.9715 25.3595C25.5405 25.1604 25.0616 25.0882 24.591 25.1513C24.1204 25.2144 23.6775 25.4102 23.3141 25.7158C22.9507 26.0215 22.6819 26.4242 22.539 26.8771C22.3962 27.3299 22.3853 27.8141 22.5075 28.2729L28.3963 50.2501C28.9942 52.4814 32.0374 52.7789 33.0559 50.7072L36.4497 43.8036C36.686 43.3243 37.022 42.9011 37.4352 42.5623C37.8484 42.2235 38.3292 41.9769 38.8454 41.8391L46.5994 39.7614C48.8572 39.1564 49.1241 36.0567 47.0009 35.0779L25.9715 25.3595ZM30.8124 49.6079L24.9223 27.6258L45.9523 37.3466L38.1984 39.4242C37.3376 39.6548 36.536 40.0667 35.8475 40.6324C35.159 41.1981 34.5994 41.9045 34.2063 42.7042L30.8124 49.6079Z" fill="black"/>
</g>
<defs>
<clipPath id="clip0_2429_1795">
<rect width="50" height="50" fill="white" transform="translate(0.382812 13.3223) rotate(-15)"/>
</clipPath>
</defs>
</svg>
